<?xml version="1.0" encoding="UTF-8"?>
<svg version="1.1" viewBox="0 0 2048 1453" width="593" height="421" xmlns="http://www.w3.org/2000/svg">
<path transform="translate(782,643)" d="m0 0h18l15 3 16 7 9 7 6 7 3 3 7-11 5-5 14-7 9-2h7v173l-2 12-5 13-8 12-8 8-14 8-15 5-18 3h-30l-21-4-18-7-10-7-7-7-7-11-5-12-1-4v-11l1-1 16-1h27l4 1 6 14 5 5 7 4 7 2h23l11-4 7-6 4-9 1-6v-32l-10 8-13 6-11 3-7 1h-21l-15-4-10-4-11-9-8-8-8-13-5-12-3-11-1-8v-22l4-18 8-16 9-12 9-9 14-7 13-4zm17 41-12 5-8 8-5 9-2 9v14l3 12 7 10 7 6 7 3 15 1 10-3 10-6 7-9 4-13v-14l-3-12-6-9-7-6-9-4-4-1z" fill="#FEFEFE"/>
<path transform="translate(332,569)" d="m0 0h73l22 3 15 4 16 7 12 7 12 11 10 12 9 14 6 14 4 18 2 21v11l-3 21-6 20-6 12-11 14-12 12-10 7-16 8-16 6-14 3-19 2h-68l-2-1-1-3v-221zm47 45v136h29l15-4 12-5 9-7 6-7 8-15 4-17 1-12-2-19-3-12-6-12-7-9-10-7-11-5-16-4-10-1z" fill="#FEFEFE"/>
<path transform="translate(1299,546)" d="m0 0 9 2 10 4 13 10 8 10 5 11 2 7 1 8v202l-10-1-12-4-9-6-8-10-4-4-9 10-10 7-11 5-10 3-7 1h-22l-15-4-9-4-8-6-10-9-7-10-6-12-4-13-2-12v-19l3-15 5-14 9-14 9-10 9-7 15-6 14-3h19l14 3 12 5 11 7 4 3v-113zm-44 138-10 4-9 8-6 11-2 10v10l2 10 5 10 6 7 9 5 10 2h8l9-3 9-6 8-9 4-11v-19l-5-13-6-7-9-6-8-3z" fill="#FEFEFE"/>
<path transform="translate(1449,643)" d="m0 0h19l14 2 16 5 11 6 10 9 7 8 8 14 5 16 1 7v19l-4 3-109 1 3 12 5 9 8 7 9 3h11l9-2 9-6 9-11 3-1h38l5 2 1 3-4 11-7 12-7 8-14 11-11 5-16 4-8 1h-25l-19-4-13-5-14-10-9-9-9-14-5-13-2-10-1-18 2-15 4-12 6-12 11-13 7-7 14-8 15-5zm5 34-9 2-9 6-4 5-5 12v2h61l-3-9-5-9-9-6-5-2z" fill="#FEFEFE"/>
<path transform="translate(603,643)" d="m0 0h24l16 3 13 5 11 6 9 8 10 13 8 14 3 9 2 12v20l-4 18-10 18-11 12-10 8-14 7-15 4-8 1h-27l-15-3-13-5-16-11-10-10-8-13-5-14-2-10v-25l3-14 7-16 10-13 4-5 13-8 12-6 16-4zm8 39-9 2-9 6-7 8-4 10-2 16 2 13 4 10 8 9 8 4 7 2h11l11-3 9-7 6-10 3-11v-16l-3-12-5-9-7-7-10-4z" fill="#FEFEFE"/>
<path transform="translate(1633,643)" d="m0 0h21l14 2 15 5 13 7 10 9 10 13 7 15 3 11 1 8v18l-2 13-4 12-5 10-7 9-9 9-10 7-12 5-14 4-8 1h-27l-16-3-12-5-10-6-13-12-8-11-6-13-3-11-1-7v-23l4-16 8-16 10-13 9-8 10-6 14-5zm11 39-10 1-8 4-9 7-7 14-1 5v20l3 10 6 8 7 6 9 4 4 1h11l11-4 6-4 6-8 4-10 1-4v-18l-3-11-5-9-5-5-8-5z" fill="#FEFEFE"/>
<path transform="translate(1074,645)" d="m0 0h7l-3 9-11 31-14 37-11 30-15 39-3 4-3 1h-53l-4-5-9-21-13-34-13-35-11-29-6-18 1-5 3-1h37l7 2 4 8 16 49 13 40 1 4h2l3-11 11-35 7-18 5-9 10-13 9-9 16-8 8-2z" fill="#FEFEFE"/>
<path transform="translate(1101,645)" d="m0 0 9 2 16 8 8 7 7 10 6 13 2 10 1 12v85l-2 3-3 1h-41l-3-3z" fill="#FEFEFE"/>
<path transform="translate(1118,565)" d="m0 0h9l11 2 10 5 9 8 3 6v13l-3 6-7 7-10 5-11 3h-13l-13-4-8-5-7-8-3-9 1-8 4-7 9-8 12-5z" fill="#FEFEFE"/>
<path transform="translate(1781,556)" d="m0 0h11l9 2 11 7 8 9 4 8 2 8-1 13-5 12-11 11-11 5-5 1h-15l-10-4-6-4-8-9-5-11-1-3v-13l4-11 8-11 10-7 5-2zm-2 6-10 4-6 5-5 7-3 9v15l4 10 6 7 10 6 4 1h16l9-4 8-7 4-6 3-9v-11l-4-11-8-9-8-5-7-2z" fill="#FEFEFE"/>
<path transform="translate(1776,573)" d="m0 0h16l7 3 3 3 1 7-4 7-1 4 4 8 1 3v7l-4 1-3-9-4-8-1-1-11-1-2 20-4-2-1-3-1-30 1-7zm3 4-1 2v11l1 2 8 1 7-2 3-4v-5l-4-4-4-1z" fill="#FEFEFE"/>
</svg>
