<svg width="133" height="121" viewBox="0 0 133 121" fill="none" xmlns="http://www.w3.org/2000/svg">
<path d="M32.4188 86.2125C37.1292 82.9354 42.3938 80.3515 48.2125 78.4609C54.0313 76.5703 60.1271 75.625 66.5 75.625C72.873 75.625 78.9688 76.5703 84.7875 78.4609C90.6063 80.3515 95.8709 82.9354 100.581 86.2125C103.814 82.7673 106.331 78.86 108.132 74.4906C109.933 70.1212 110.833 65.4576 110.833 60.5C110.833 49.3243 106.515 39.8081 97.8797 31.9515C89.244 24.0949 78.7841 20.1666 66.5 20.1666C54.216 20.1666 43.7561 24.0949 35.1204 31.9515C26.4846 39.8081 22.1667 49.3243 22.1667 60.5C22.1667 65.4576 23.0672 70.1212 24.8683 74.4906C26.6693 78.86 29.1862 82.7673 32.4188 86.2125ZM66.5 65.5416C61.0507 65.5416 56.4558 63.8401 52.7151 60.437C48.9745 57.0338 47.1042 52.8535 47.1042 47.8958C47.1042 42.9382 48.9745 38.7578 52.7151 35.3547C56.4558 31.9515 61.0507 30.25 66.5 30.25C71.9493 30.25 76.5443 31.9515 80.2849 35.3547C84.0256 38.7578 85.8959 42.9382 85.8959 47.8958C85.8959 52.8535 84.0256 57.0338 80.2849 60.437C76.5443 63.8401 71.9493 65.5416 66.5 65.5416ZM66.5 110.917C58.8341 110.917 51.6299 109.593 44.8875 106.946C38.1452 104.299 32.2802 100.707 27.2927 96.1698C22.3052 91.6323 18.3568 86.2965 15.4474 80.1625C12.5381 74.0285 11.0834 67.4743 11.0834 60.5C11.0834 53.5257 12.5381 46.9715 15.4474 40.8375C18.3568 34.7035 22.3052 29.3677 27.2927 24.8302C32.2802 20.2927 38.1452 16.7005 44.8875 14.0536C51.6299 11.4068 58.8341 10.0833 66.5 10.0833C74.166 10.0833 81.3702 11.4068 88.1125 14.0536C94.8549 16.7005 100.72 20.2927 105.707 24.8302C110.695 29.3677 114.643 34.7035 117.553 40.8375C120.462 46.9715 121.917 53.5257 121.917 60.5C121.917 67.4743 120.462 74.0285 117.553 80.1625C114.643 86.2965 110.695 91.6323 105.707 96.1698C100.72 100.707 94.8549 104.299 88.1125 106.946C81.3702 109.593 74.166 110.917 66.5 110.917Z" fill="#FEF7FF"/>
</svg>
